<svg xmlns="http://www.w3.org/2000/svg" width="512" height="512" viewBox="0 0 24 24"><path fill="#000000" d="M6 2a2 2 0 0 0-2 2v7.034A1.5 1.5 0 0 1 4.317 11H5.5V4a.5.5 0 0 1 .5-.5h6V8a2 2 0 0 0 2 2h4.5v10a.5.5 0 0 1-.5.5H8.288L6.974 22H18a2 2 0 0 0 2-2V9.828a2 2 0 0 0-.586-1.414l-5.828-5.828A2 2 0 0 0 12.172 2H6Zm11.38 6.5H14a.5.5 0 0 1-.5-.5V4.62l3.88 3.88ZM4.317 12h4.827a.5.5 0 0 1 .436.745L7.751 16h1.495a.75.75 0 0 1 .565 1.244l-4.824 5.508c-.505.576-1.443.085-1.258-.657L4.5 19H1.498a.5.5 0 0 1-.453-.713l2.82-6A.5.5 0 0 1 4.318 12Z"/></svg>